<mxfile host="app.diagrams.net" modified="2021-09-29T22:01:04.098Z" agent="5.0 (Windows NT 10.0; Win64; x64) AppleWebKit/537.36 (KHTML, like Gecko) Chrome/93.0.4577.82 Safari/537.36" etag="Mw1te_Uvxh1_uufgoZIv" version="15.3.8" type="github">
  <diagram id="ek9SvoUbZJLgTX0v-QCz" name="Page-1">
    <mxGraphModel dx="2612" dy="2229" grid="0" gridSize="10" guides="1" tooltips="1" connect="1" arrows="1" fold="1" page="1" pageScale="1" pageWidth="827" pageHeight="1169" math="0" shadow="0">
      <root>
        <mxCell id="0" />
        <mxCell id="1" parent="0" />
        <mxCell id="N_aPm0FDeAfyOkNH4oF6-2" value="" style="rounded=1;arcSize=10;dashed=0;fillColor=none;gradientColor=none;strokeWidth=2;" parent="1" vertex="1">
          <mxGeometry x="-541.79" y="240" width="1061.79" height="770" as="geometry" />
        </mxCell>
        <mxCell id="kG0Gnvkc59BF_0Ackvxo-6" value="" style="rounded=1;arcSize=10;dashed=0;fillColor=none;gradientColor=none;strokeWidth=2;" parent="1" vertex="1">
          <mxGeometry x="-406.49" y="756.87" width="262.49" height="142" as="geometry" />
        </mxCell>
        <mxCell id="N_aPm0FDeAfyOkNH4oF6-1" value="" style="rounded=1;arcSize=10;dashed=0;fillColor=none;gradientColor=none;strokeWidth=2;" parent="1" vertex="1">
          <mxGeometry x="-640" y="40" width="1240" height="1075" as="geometry" />
        </mxCell>
        <mxCell id="sJd-5g1WIgTYYCsRjonQ-4" value="asg_ws" style="rounded=1;arcSize=10;dashed=1;strokeColor=#999999;fillColor=none;gradientColor=none;dashPattern=8 4;strokeWidth=2;labelPosition=center;verticalLabelPosition=bottom;align=center;verticalAlign=top;fontColor=#000000;" parent="1" vertex="1">
          <mxGeometry x="-344.83" y="446.44000000000005" width="680.83" height="161.56" as="geometry" />
        </mxCell>
        <mxCell id="N_aPm0FDeAfyOkNH4oF6-3" value="" style="rounded=1;arcSize=10;dashed=1;strokeColor=#F59D56;fillColor=none;gradientColor=none;dashPattern=8 4;strokeWidth=2;" parent="1" vertex="1">
          <mxGeometry x="-463.5" y="368.25" width="359.5" height="559.75" as="geometry" />
        </mxCell>
        <mxCell id="N_aPm0FDeAfyOkNH4oF6-4" value="" style="rounded=1;arcSize=10;dashed=0;fillColor=none;gradientColor=none;strokeWidth=2;" parent="1" vertex="1">
          <mxGeometry x="-404.83" y="408" width="260.83" height="240" as="geometry" />
        </mxCell>
        <mxCell id="N_aPm0FDeAfyOkNH4oF6-5" value="" style="rounded=1;arcSize=10;dashed=1;strokeColor=#F59D56;fillColor=none;gradientColor=none;dashPattern=8 4;strokeWidth=2;" parent="1" vertex="1">
          <mxGeometry x="96" y="368" width="360" height="560" as="geometry" />
        </mxCell>
        <mxCell id="N_aPm0FDeAfyOkNH4oF6-6" value="&lt;span&gt;vpc10&lt;/span&gt;&lt;span&gt;&lt;br&gt;10.0.0.0/16&lt;/span&gt;" style="dashed=0;html=1;shape=mxgraph.aws3.virtual_private_cloud;fillColor=#F58536;gradientColor=none;dashed=0;labelPosition=center;verticalLabelPosition=bottom;align=center;verticalAlign=top;labelBackgroundColor=#ffffff;labelBorderColor=#FFFFFF;shadow=1;" parent="1" vertex="1">
          <mxGeometry x="-456.83" y="217.18" width="52" height="36" as="geometry" />
        </mxCell>
        <mxCell id="N_aPm0FDeAfyOkNH4oF6-7" value="&lt;font color=&quot;#ff8000&quot;&gt;&lt;b&gt;us-east-1&lt;/b&gt;&lt;/font&gt;" style="dashed=0;html=1;shape=mxgraph.aws3.cloud;fillColor=#F58536;gradientColor=none;dashed=0;shadow=1;labelPosition=center;verticalLabelPosition=bottom;align=center;verticalAlign=top;" parent="1" vertex="1">
          <mxGeometry x="-520" y="22" width="52" height="36" as="geometry" />
        </mxCell>
        <mxCell id="N_aPm0FDeAfyOkNH4oF6-8" value="&lt;span style=&quot;text-align: left&quot;&gt;sn_vpc10_pub_1&lt;br&gt;10.0.1.0/24&lt;/span&gt;" style="dashed=0;html=1;shape=mxgraph.aws3.permissions;fillColor=#D9A741;gradientColor=none;dashed=0;shadow=1;labelPosition=right;verticalLabelPosition=middle;align=left;verticalAlign=middle;labelBackgroundColor=#ffffff;labelBorderColor=#FFFFFF;" parent="1" vertex="1">
          <mxGeometry x="-395.5600000000001" y="397.38" width="17.14" height="20" as="geometry" />
        </mxCell>
        <mxCell id="N_aPm0FDeAfyOkNH4oF6-9" value="" style="rounded=1;arcSize=10;dashed=0;fillColor=none;gradientColor=none;strokeWidth=2;" parent="1" vertex="1">
          <mxGeometry x="136" y="403.18" width="260" height="244.82" as="geometry" />
        </mxCell>
        <mxCell id="N_aPm0FDeAfyOkNH4oF6-12" value="us-east-1c" style="text;html=1;strokeColor=none;fillColor=none;align=center;verticalAlign=middle;whiteSpace=wrap;rounded=0;fontStyle=1;fontColor=#FF8000;" parent="1" vertex="1">
          <mxGeometry x="121" y="348" width="270" height="20" as="geometry" />
        </mxCell>
        <mxCell id="N_aPm0FDeAfyOkNH4oF6-17" value="&lt;span&gt;igw_vpc10&lt;/span&gt;" style="outlineConnect=0;dashed=0;verticalLabelPosition=middle;verticalAlign=middle;align=right;html=1;shape=mxgraph.aws3.internet_gateway;fillColor=#F58534;gradientColor=none;fontColor=#000000;fontSize=12;labelBackgroundColor=#ffffff;whiteSpace=wrap;labelBorderColor=#FFFFFF;shadow=1;labelPosition=left;" parent="1" vertex="1">
          <mxGeometry x="-100.00000000000007" y="217.17999999999995" width="38.33" height="40" as="geometry" />
        </mxCell>
        <mxCell id="N_aPm0FDeAfyOkNH4oF6-28" value="Internet" style="aspect=fixed;perimeter=ellipsePerimeter;html=1;align=center;shadow=0;dashed=0;spacingTop=3;image;image=img/lib/active_directory/internet_cloud.svg;fontSize=12;fontColor=#000000;" parent="1" vertex="1">
          <mxGeometry x="-44.99999999999998" y="-81.5" width="50" height="31.5" as="geometry" />
        </mxCell>
        <mxCell id="N_aPm0FDeAfyOkNH4oF6-35" value="ws_1" style="outlineConnect=0;dashed=0;verticalLabelPosition=middle;verticalAlign=middle;align=right;html=1;shape=mxgraph.aws3.instance;fillColor=#F58534;shadow=1;sketch=0;labelPosition=left;" parent="1" vertex="1">
          <mxGeometry x="-302.93" y="533.02" width="38.1" height="40" as="geometry" />
        </mxCell>
        <mxCell id="N_aPm0FDeAfyOkNH4oF6-38" value="&amp;nbsp;ws_3" style="outlineConnect=0;dashed=0;verticalLabelPosition=middle;verticalAlign=middle;align=left;html=1;shape=mxgraph.aws3.instance;fillColor=#F58534;shadow=1;sketch=0;labelPosition=right;" parent="1" vertex="1">
          <mxGeometry x="176" y="536.27" width="38.1" height="40" as="geometry" />
        </mxCell>
        <mxCell id="N_aPm0FDeAfyOkNH4oF6-47" value="ws_2" style="outlineConnect=0;dashed=0;verticalLabelPosition=middle;verticalAlign=middle;align=right;html=1;shape=mxgraph.aws3.instance;fillColor=#F58534;shadow=1;sketch=0;labelPosition=left;" parent="1" vertex="1">
          <mxGeometry x="-222.92999999999998" y="533.02" width="38.1" height="40" as="geometry" />
        </mxCell>
        <mxCell id="N_aPm0FDeAfyOkNH4oF6-50" value="&amp;nbsp;ws_4" style="outlineConnect=0;dashed=0;verticalLabelPosition=middle;verticalAlign=middle;align=left;html=1;shape=mxgraph.aws3.instance;fillColor=#F58534;shadow=1;sketch=0;labelPosition=right;" parent="1" vertex="1">
          <mxGeometry x="255.41999999999996" y="535.1200000000001" width="38.1" height="40" as="geometry" />
        </mxCell>
        <mxCell id="N_aPm0FDeAfyOkNH4oF6-157" value="&lt;span style=&quot;text-align: left&quot;&gt;sn_vpc10_pub_2&lt;br&gt;10.0.2.0/24&lt;/span&gt;" style="dashed=0;html=1;shape=mxgraph.aws3.permissions;fillColor=#D9A741;gradientColor=none;dashed=0;shadow=1;align=left;labelBackgroundColor=#ffffff;labelBorderColor=#FFFFFF;labelPosition=right;verticalLabelPosition=middle;verticalAlign=middle;" parent="1" vertex="1">
          <mxGeometry x="145.99999999999991" y="393.18" width="17.14" height="20" as="geometry" />
        </mxCell>
        <mxCell id="N_aPm0FDeAfyOkNH4oF6-164" style="edgeStyle=orthogonalEdgeStyle;rounded=0;orthogonalLoop=1;jettySize=auto;html=1;entryX=0.5;entryY=0;entryDx=0;entryDy=0;entryPerimeter=0;fillColor=#0050ef;startArrow=none;startFill=0;endArrow=classic;endFill=1;elbow=vertical;curved=1;strokeColor=#99CCFF;exitX=0.25;exitY=1;exitDx=0;exitDy=0;" parent="1" source="N_aPm0FDeAfyOkNH4oF6-28" target="N_aPm0FDeAfyOkNH4oF6-17" edge="1">
          <mxGeometry relative="1" as="geometry">
            <mxPoint x="-95" y="50" as="sourcePoint" />
            <mxPoint x="-632.75" y="590.1300000000001" as="targetPoint" />
          </mxGeometry>
        </mxCell>
        <mxCell id="N_aPm0FDeAfyOkNH4oF6-289" value="ngw_pub_1" style="outlineConnect=0;dashed=0;verticalLabelPosition=bottom;verticalAlign=top;align=center;html=1;shape=mxgraph.aws3.vpc_nat_gateway;fillColor=#F58534;gradientColor=none;strokeColor=#CCCCCC;labelBackgroundColor=#ffffff;labelBorderColor=#FFFFFF;shadow=1;" parent="1" vertex="1">
          <mxGeometry x="-420.09999999999997" y="535.12" width="40.02" height="41.76" as="geometry" />
        </mxCell>
        <mxCell id="kG0Gnvkc59BF_0Ackvxo-3" value="us-east-1a" style="text;html=1;strokeColor=none;fillColor=none;align=center;verticalAlign=middle;whiteSpace=wrap;rounded=0;fontStyle=1;fontColor=#FF8000;" parent="1" vertex="1">
          <mxGeometry x="-413.99999999999994" y="348" width="270" height="20" as="geometry" />
        </mxCell>
        <mxCell id="kG0Gnvkc59BF_0Ackvxo-4" value="ngw_pub_2" style="outlineConnect=0;dashed=0;verticalLabelPosition=bottom;verticalAlign=top;align=center;html=1;shape=mxgraph.aws3.vpc_nat_gateway;fillColor=#F58534;gradientColor=none;strokeColor=#CCCCCC;labelBackgroundColor=#ffffff;labelBorderColor=#FFFFFF;shadow=1;" parent="1" vertex="1">
          <mxGeometry x="375.9800000000001" y="528" width="40.02" height="41.76" as="geometry" />
        </mxCell>
        <mxCell id="kG0Gnvkc59BF_0Ackvxo-7" value="&lt;span style=&quot;text-align: left&quot;&gt;sn_vpc10_priv_1&lt;br&gt;10.0.3.0/24&lt;/span&gt;" style="dashed=0;html=1;shape=mxgraph.aws3.permissions;fillColor=#D9A741;gradientColor=none;dashed=0;shadow=1;labelPosition=right;verticalLabelPosition=middle;align=left;verticalAlign=middle;labelBackgroundColor=#ffffff;labelBorderColor=#FFFFFF;" parent="1" vertex="1">
          <mxGeometry x="-397.22000000000014" y="746.25" width="17.14" height="20" as="geometry" />
        </mxCell>
        <mxCell id="kG0Gnvkc59BF_0Ackvxo-8" value="" style="rounded=1;arcSize=10;dashed=0;fillColor=none;gradientColor=none;strokeWidth=2;" parent="1" vertex="1">
          <mxGeometry x="136" y="756.87" width="260" height="142" as="geometry" />
        </mxCell>
        <mxCell id="kG0Gnvkc59BF_0Ackvxo-9" value="&lt;span style=&quot;text-align: left&quot;&gt;sn_vpc10_priv_2&lt;br&gt;10.0.4.0/24&lt;/span&gt;" style="dashed=0;html=1;shape=mxgraph.aws3.permissions;fillColor=#D9A741;gradientColor=none;dashed=0;shadow=1;labelPosition=right;verticalLabelPosition=middle;align=left;verticalAlign=middle;labelBackgroundColor=#ffffff;labelBorderColor=#FFFFFF;" parent="1" vertex="1">
          <mxGeometry x="145.26999999999987" y="746.25" width="17.14" height="20" as="geometry" />
        </mxCell>
        <mxCell id="sJd-5g1WIgTYYCsRjonQ-25" value="sync" style="edgeStyle=orthogonalEdgeStyle;rounded=0;orthogonalLoop=1;jettySize=auto;html=1;exitX=1;exitY=0.5;exitDx=0;exitDy=0;exitPerimeter=0;entryX=0;entryY=0.5;entryDx=0;entryDy=0;entryPerimeter=0;fontColor=#999999;startArrow=none;startFill=0;endArrow=none;endFill=0;strokeColor=#999999;dashed=1;" parent="1" source="sJd-5g1WIgTYYCsRjonQ-1" target="sJd-5g1WIgTYYCsRjonQ-2" edge="1">
          <mxGeometry relative="1" as="geometry" />
        </mxCell>
        <mxCell id="sJd-5g1WIgTYYCsRjonQ-1" value="rds_master" style="outlineConnect=0;dashed=0;verticalLabelPosition=bottom;verticalAlign=top;align=center;html=1;shape=mxgraph.aws3.rds_db_instance;fillColor=#2E73B8;gradientColor=none;" parent="1" vertex="1">
          <mxGeometry x="-308.5" y="794.87" width="49.5" height="66" as="geometry" />
        </mxCell>
        <mxCell id="sJd-5g1WIgTYYCsRjonQ-2" value="rds_slave" style="outlineConnect=0;dashed=0;verticalLabelPosition=bottom;verticalAlign=top;align=center;html=1;shape=mxgraph.aws3.rds_db_instance_standby_multi_az;fillColor=#2E73B8;gradientColor=none;" parent="1" vertex="1">
          <mxGeometry x="241.24999999999997" y="794.87" width="49.5" height="66" as="geometry" />
        </mxCell>
        <mxCell id="sJd-5g1WIgTYYCsRjonQ-3" value="elb_ws" style="outlineConnect=0;dashed=0;verticalLabelPosition=middle;verticalAlign=middle;align=right;html=1;shape=mxgraph.aws3.classic_load_balancer;fillColor=#F58534;gradientColor=none;labelPosition=left;labelBackgroundColor=default;labelBorderColor=#FFFFFF;whiteSpace=wrap;" parent="1" vertex="1">
          <mxGeometry x="-20.25000000000002" y="424" width="40.25" height="42" as="geometry" />
        </mxCell>
        <mxCell id="sJd-5g1WIgTYYCsRjonQ-6" value="&amp;nbsp;sns_topic_app" style="sketch=0;points=[[0,0,0],[0.25,0,0],[0.5,0,0],[0.75,0,0],[1,0,0],[0,1,0],[0.25,1,0],[0.5,1,0],[0.75,1,0],[1,1,0],[0,0.25,0],[0,0.5,0],[0,0.75,0],[1,0.25,0],[1,0.5,0],[1,0.75,0]];outlineConnect=0;fontColor=#232F3E;gradientColor=#FF4F8B;gradientDirection=north;fillColor=#BC1356;strokeColor=#ffffff;dashed=0;verticalLabelPosition=middle;verticalAlign=middle;align=left;html=1;fontSize=12;fontStyle=0;aspect=fixed;shape=mxgraph.aws4.resourceIcon;resIcon=mxgraph.aws4.sns;labelPosition=right;" parent="1" vertex="1">
          <mxGeometry x="18.71000000000003" y="110" width="44" height="44" as="geometry" />
        </mxCell>
        <mxCell id="sJd-5g1WIgTYYCsRjonQ-9" value="User" style="shape=umlActor;verticalLabelPosition=bottom;verticalAlign=top;html=1;outlineConnect=0;fontColor=#000000;strokeColor=#000000;" parent="1" vertex="1">
          <mxGeometry x="-140" y="-200" width="30" height="60" as="geometry" />
        </mxCell>
        <mxCell id="sJd-5g1WIgTYYCsRjonQ-10" style="edgeStyle=orthogonalEdgeStyle;rounded=0;orthogonalLoop=1;jettySize=auto;html=1;fillColor=#0050ef;startArrow=none;startFill=0;endArrow=classic;endFill=1;elbow=vertical;curved=1;strokeColor=#99CCFF;entryX=0;entryY=0;entryDx=0;entryDy=0;" parent="1" source="sJd-5g1WIgTYYCsRjonQ-9" target="N_aPm0FDeAfyOkNH4oF6-28" edge="1">
          <mxGeometry relative="1" as="geometry">
            <mxPoint x="-60.00000000001023" y="125.74999999999989" as="sourcePoint" />
            <mxPoint x="-27" y="-178" as="targetPoint" />
          </mxGeometry>
        </mxCell>
        <mxCell id="sJd-5g1WIgTYYCsRjonQ-12" style="edgeStyle=orthogonalEdgeStyle;rounded=0;orthogonalLoop=1;jettySize=auto;html=1;entryX=0.5;entryY=0;entryDx=0;entryDy=0;entryPerimeter=0;fillColor=#0050ef;startArrow=none;startFill=0;endArrow=classic;endFill=1;elbow=vertical;curved=1;strokeColor=#99CCFF;exitX=0.5;exitY=1;exitDx=0;exitDy=0;exitPerimeter=0;" parent="1" source="N_aPm0FDeAfyOkNH4oF6-17" target="sJd-5g1WIgTYYCsRjonQ-3" edge="1">
          <mxGeometry relative="1" as="geometry">
            <mxPoint x="-20" y="320" as="sourcePoint" />
            <mxPoint x="-11.375" y="270" as="targetPoint" />
          </mxGeometry>
        </mxCell>
        <mxCell id="sJd-5g1WIgTYYCsRjonQ-17" style="edgeStyle=orthogonalEdgeStyle;rounded=0;orthogonalLoop=1;jettySize=auto;html=1;fillColor=#0050ef;startArrow=none;startFill=0;endArrow=classic;endFill=1;elbow=vertical;curved=1;strokeColor=#99CCFF;entryX=0.5;entryY=0.02;entryDx=0;entryDy=0;entryPerimeter=0;exitX=0.5;exitY=1;exitDx=0;exitDy=0;exitPerimeter=0;" parent="1" source="N_aPm0FDeAfyOkNH4oF6-35" target="sJd-5g1WIgTYYCsRjonQ-1" edge="1">
          <mxGeometry relative="1" as="geometry">
            <mxPoint x="-284" y="596" as="sourcePoint" />
            <mxPoint x="-273.8571428571429" y="543.02" as="targetPoint" />
          </mxGeometry>
        </mxCell>
        <mxCell id="sJd-5g1WIgTYYCsRjonQ-18" style="edgeStyle=orthogonalEdgeStyle;rounded=0;orthogonalLoop=1;jettySize=auto;html=1;fillColor=#0050ef;startArrow=none;startFill=0;endArrow=classic;endFill=1;elbow=vertical;curved=1;strokeColor=#99CCFF;entryX=0.5;entryY=0.02;entryDx=0;entryDy=0;entryPerimeter=0;exitX=0.5;exitY=1;exitDx=0;exitDy=0;exitPerimeter=0;" parent="1" source="N_aPm0FDeAfyOkNH4oF6-47" target="sJd-5g1WIgTYYCsRjonQ-1" edge="1">
          <mxGeometry relative="1" as="geometry">
            <mxPoint x="-274.0000000000002" y="606" as="sourcePoint" />
            <mxPoint x="-264.40999999999985" y="812.4200000000001" as="targetPoint" />
          </mxGeometry>
        </mxCell>
        <mxCell id="sJd-5g1WIgTYYCsRjonQ-19" style="edgeStyle=orthogonalEdgeStyle;rounded=0;orthogonalLoop=1;jettySize=auto;html=1;fillColor=#0050ef;startArrow=none;startFill=0;endArrow=classic;endFill=1;elbow=vertical;curved=1;strokeColor=#99CCFF;entryX=0.5;entryY=0.02;entryDx=0;entryDy=0;entryPerimeter=0;exitX=0.5;exitY=1;exitDx=0;exitDy=0;exitPerimeter=0;" parent="1" source="N_aPm0FDeAfyOkNH4oF6-38" target="sJd-5g1WIgTYYCsRjonQ-1" edge="1">
          <mxGeometry relative="1" as="geometry">
            <mxPoint x="-212.93000000000006" y="563" as="sourcePoint" />
            <mxPoint x="-264.40999999999985" y="812.4200000000001" as="targetPoint" />
          </mxGeometry>
        </mxCell>
        <mxCell id="sJd-5g1WIgTYYCsRjonQ-20" style="edgeStyle=orthogonalEdgeStyle;rounded=0;orthogonalLoop=1;jettySize=auto;html=1;fillColor=#0050ef;startArrow=none;startFill=0;endArrow=classic;endFill=1;elbow=vertical;curved=1;strokeColor=#99CCFF;exitX=0.5;exitY=1;exitDx=0;exitDy=0;exitPerimeter=0;" parent="1" source="N_aPm0FDeAfyOkNH4oF6-50" target="sJd-5g1WIgTYYCsRjonQ-1" edge="1">
          <mxGeometry relative="1" as="geometry">
            <mxPoint x="186" y="566.2857142857142" as="sourcePoint" />
            <mxPoint x="-264.40999999999985" y="812.4200000000001" as="targetPoint" />
          </mxGeometry>
        </mxCell>
        <mxCell id="sJd-5g1WIgTYYCsRjonQ-22" style="edgeStyle=orthogonalEdgeStyle;rounded=0;orthogonalLoop=1;jettySize=auto;html=1;fillColor=#0050ef;startArrow=classic;startFill=1;endArrow=none;endFill=0;elbow=vertical;curved=1;strokeColor=#0000FF;exitX=0.5;exitY=1;exitDx=0;exitDy=0;exitPerimeter=0;" parent="1" source="sJd-5g1WIgTYYCsRjonQ-6" target="sJd-5g1WIgTYYCsRjonQ-5" edge="1">
          <mxGeometry relative="1" as="geometry">
            <mxPoint x="-49.700000000000045" y="41.500000000000455" as="sourcePoint" />
            <mxPoint x="-49.705000000000155" y="268.59000000000015" as="targetPoint" />
          </mxGeometry>
        </mxCell>
        <mxCell id="sJd-5g1WIgTYYCsRjonQ-24" style="edgeStyle=orthogonalEdgeStyle;rounded=0;orthogonalLoop=1;jettySize=auto;html=1;fillColor=#0050ef;startArrow=classic;startFill=1;endArrow=none;endFill=0;elbow=vertical;curved=1;strokeColor=#0000FF;exitX=0.75;exitY=1;exitDx=0;exitDy=0;entryX=0.5;entryY=0;entryDx=0;entryDy=0;entryPerimeter=0;" parent="1" source="N_aPm0FDeAfyOkNH4oF6-28" target="sJd-5g1WIgTYYCsRjonQ-6" edge="1">
          <mxGeometry relative="1" as="geometry">
            <mxPoint x="32" y="208" as="sourcePoint" />
            <mxPoint x="30.71428571428578" y="267.8800000000001" as="targetPoint" />
          </mxGeometry>
        </mxCell>
        <mxCell id="sJd-5g1WIgTYYCsRjonQ-27" style="edgeStyle=orthogonalEdgeStyle;rounded=0;orthogonalLoop=1;jettySize=auto;html=1;entryX=0.5;entryY=0;entryDx=0;entryDy=0;entryPerimeter=0;fillColor=#0050ef;startArrow=none;startFill=0;endArrow=classic;endFill=1;elbow=vertical;curved=1;strokeColor=#99CCFF;exitX=0.5;exitY=1;exitDx=0;exitDy=0;exitPerimeter=0;" parent="1" source="sJd-5g1WIgTYYCsRjonQ-3" target="N_aPm0FDeAfyOkNH4oF6-35" edge="1">
          <mxGeometry relative="1" as="geometry">
            <mxPoint x="-70.83499999999981" y="267.17999999999984" as="sourcePoint" />
            <mxPoint x="9.875000000000227" y="434" as="targetPoint" />
          </mxGeometry>
        </mxCell>
        <mxCell id="sJd-5g1WIgTYYCsRjonQ-28" style="edgeStyle=orthogonalEdgeStyle;rounded=0;orthogonalLoop=1;jettySize=auto;html=1;entryX=0.5;entryY=0;entryDx=0;entryDy=0;entryPerimeter=0;fillColor=#0050ef;startArrow=none;startFill=0;endArrow=classic;endFill=1;elbow=vertical;curved=1;strokeColor=#99CCFF;exitX=0.5;exitY=1;exitDx=0;exitDy=0;exitPerimeter=0;" parent="1" source="sJd-5g1WIgTYYCsRjonQ-3" target="N_aPm0FDeAfyOkNH4oF6-47" edge="1">
          <mxGeometry relative="1" as="geometry">
            <mxPoint x="9.875" y="476" as="sourcePoint" />
            <mxPoint x="-273.8799999999999" y="543.02" as="targetPoint" />
          </mxGeometry>
        </mxCell>
        <mxCell id="sJd-5g1WIgTYYCsRjonQ-29" style="edgeStyle=orthogonalEdgeStyle;rounded=0;orthogonalLoop=1;jettySize=auto;html=1;entryX=0.5;entryY=0;entryDx=0;entryDy=0;entryPerimeter=0;fillColor=#0050ef;startArrow=none;startFill=0;endArrow=classic;endFill=1;elbow=vertical;curved=1;strokeColor=#99CCFF;exitX=0.5;exitY=1;exitDx=0;exitDy=0;exitPerimeter=0;" parent="1" source="sJd-5g1WIgTYYCsRjonQ-3" target="N_aPm0FDeAfyOkNH4oF6-38" edge="1">
          <mxGeometry relative="1" as="geometry">
            <mxPoint x="9.875" y="476" as="sourcePoint" />
            <mxPoint x="-193.87999999999988" y="543.02" as="targetPoint" />
          </mxGeometry>
        </mxCell>
        <mxCell id="sJd-5g1WIgTYYCsRjonQ-30" style="edgeStyle=orthogonalEdgeStyle;rounded=0;orthogonalLoop=1;jettySize=auto;html=1;fillColor=#0050ef;startArrow=none;startFill=0;endArrow=classic;endFill=1;elbow=vertical;curved=1;strokeColor=#99CCFF;exitX=0.5;exitY=1;exitDx=0;exitDy=0;exitPerimeter=0;entryX=0.5;entryY=0;entryDx=0;entryDy=0;entryPerimeter=0;" parent="1" source="sJd-5g1WIgTYYCsRjonQ-3" target="N_aPm0FDeAfyOkNH4oF6-50" edge="1">
          <mxGeometry relative="1" as="geometry">
            <mxPoint x="9.875" y="476" as="sourcePoint" />
            <mxPoint x="275" y="500" as="targetPoint" />
          </mxGeometry>
        </mxCell>
        <mxCell id="XL3TBwz9Qjr_CS2KYYFU-5" value="" style="html=1;verticalLabelPosition=bottom;align=center;labelBackgroundColor=#ffffff;verticalAlign=top;strokeWidth=2;strokeColor=#0080F0;shadow=0;dashed=0;shape=mxgraph.ios7.icons.smartphone;fontColor=#999999;" vertex="1" parent="1">
          <mxGeometry x="96" y="-185" width="18" height="30" as="geometry" />
        </mxCell>
        <mxCell id="XL3TBwz9Qjr_CS2KYYFU-6" style="edgeStyle=orthogonalEdgeStyle;rounded=0;orthogonalLoop=1;jettySize=auto;html=1;fillColor=#0050ef;startArrow=classic;startFill=1;endArrow=none;endFill=0;elbow=vertical;curved=1;strokeColor=#0000FF;entryX=0.75;entryY=0;entryDx=0;entryDy=0;" edge="1" parent="1" target="N_aPm0FDeAfyOkNH4oF6-28">
          <mxGeometry relative="1" as="geometry">
            <mxPoint x="94" y="-163" as="sourcePoint" />
            <mxPoint x="50.710000000000036" y="120" as="targetPoint" />
          </mxGeometry>
        </mxCell>
        <mxCell id="sJd-5g1WIgTYYCsRjonQ-5" value="vpc_ep_vpc10" style="sketch=0;outlineConnect=0;fillColor=#f0a30a;strokeColor=#BD7000;dashed=0;verticalLabelPosition=bottom;verticalAlign=top;align=center;html=1;fontSize=12;fontStyle=0;aspect=fixed;pointerEvents=1;shape=mxgraph.aws4.endpoints;labelPosition=center;labelBackgroundColor=default;labelBorderColor=#FFFFFF;whiteSpace=wrap;fontColor=#000000;" parent="1" vertex="1">
          <mxGeometry x="19.99999999999997" y="275" width="41.41" height="41.41" as="geometry" />
        </mxCell>
        <mxCell id="XL3TBwz9Qjr_CS2KYYFU-16" value="" style="rounded=1;arcSize=10;dashed=0;fillColor=none;gradientColor=none;strokeWidth=2;" vertex="1" parent="1">
          <mxGeometry x="-536.79" y="2103" width="1061.79" height="770" as="geometry" />
        </mxCell>
        <mxCell id="XL3TBwz9Qjr_CS2KYYFU-17" value="" style="rounded=1;arcSize=10;dashed=0;fillColor=none;gradientColor=none;strokeWidth=2;" vertex="1" parent="1">
          <mxGeometry x="-401.49" y="2619.87" width="262.49" height="142" as="geometry" />
        </mxCell>
        <mxCell id="XL3TBwz9Qjr_CS2KYYFU-18" value="" style="rounded=1;arcSize=10;dashed=0;fillColor=none;gradientColor=none;strokeWidth=2;" vertex="1" parent="1">
          <mxGeometry x="-635" y="1903" width="1240" height="1075" as="geometry" />
        </mxCell>
        <mxCell id="XL3TBwz9Qjr_CS2KYYFU-19" value="asg_ws" style="rounded=1;arcSize=10;dashed=1;strokeColor=#999999;fillColor=none;gradientColor=none;dashPattern=8 4;strokeWidth=2;labelPosition=center;verticalLabelPosition=bottom;align=center;verticalAlign=top;fontColor=#000000;" vertex="1" parent="1">
          <mxGeometry x="-339.83" y="2309.44" width="680.83" height="161.56" as="geometry" />
        </mxCell>
        <mxCell id="XL3TBwz9Qjr_CS2KYYFU-20" value="" style="rounded=1;arcSize=10;dashed=1;strokeColor=#F59D56;fillColor=none;gradientColor=none;dashPattern=8 4;strokeWidth=2;" vertex="1" parent="1">
          <mxGeometry x="-458.5" y="2231.25" width="359.5" height="559.75" as="geometry" />
        </mxCell>
        <mxCell id="XL3TBwz9Qjr_CS2KYYFU-21" value="" style="rounded=1;arcSize=10;dashed=0;fillColor=none;gradientColor=none;strokeWidth=2;" vertex="1" parent="1">
          <mxGeometry x="-399.83" y="2271" width="260.83" height="240" as="geometry" />
        </mxCell>
        <mxCell id="XL3TBwz9Qjr_CS2KYYFU-22" value="" style="rounded=1;arcSize=10;dashed=1;strokeColor=#F59D56;fillColor=none;gradientColor=none;dashPattern=8 4;strokeWidth=2;" vertex="1" parent="1">
          <mxGeometry x="101" y="2231" width="360" height="560" as="geometry" />
        </mxCell>
        <mxCell id="XL3TBwz9Qjr_CS2KYYFU-23" value="&lt;span&gt;vpc10&lt;/span&gt;&lt;span&gt;&lt;br&gt;10.0.0.0/16&lt;/span&gt;" style="dashed=0;html=1;shape=mxgraph.aws3.virtual_private_cloud;fillColor=#F58536;gradientColor=none;dashed=0;labelPosition=center;verticalLabelPosition=bottom;align=center;verticalAlign=top;labelBackgroundColor=#ffffff;labelBorderColor=#FFFFFF;shadow=1;" vertex="1" parent="1">
          <mxGeometry x="-451.83" y="2080.1800000000003" width="52" height="36" as="geometry" />
        </mxCell>
        <mxCell id="XL3TBwz9Qjr_CS2KYYFU-24" value="&lt;font color=&quot;#ff8000&quot;&gt;&lt;b&gt;us-east-1&lt;/b&gt;&lt;/font&gt;" style="dashed=0;html=1;shape=mxgraph.aws3.cloud;fillColor=#F58536;gradientColor=none;dashed=0;shadow=1;labelPosition=center;verticalLabelPosition=bottom;align=center;verticalAlign=top;" vertex="1" parent="1">
          <mxGeometry x="-515" y="1885" width="52" height="36" as="geometry" />
        </mxCell>
        <mxCell id="XL3TBwz9Qjr_CS2KYYFU-25" value="&lt;span style=&quot;text-align: left&quot;&gt;sn_vpc10_pub_1&lt;br&gt;10.0.1.0/24&lt;/span&gt;" style="dashed=0;html=1;shape=mxgraph.aws3.permissions;fillColor=#D9A741;gradientColor=none;dashed=0;shadow=1;labelPosition=right;verticalLabelPosition=middle;align=left;verticalAlign=middle;labelBackgroundColor=#ffffff;labelBorderColor=#FFFFFF;" vertex="1" parent="1">
          <mxGeometry x="-390.5600000000001" y="2260.38" width="17.14" height="20" as="geometry" />
        </mxCell>
        <mxCell id="XL3TBwz9Qjr_CS2KYYFU-26" value="" style="rounded=1;arcSize=10;dashed=0;fillColor=none;gradientColor=none;strokeWidth=2;" vertex="1" parent="1">
          <mxGeometry x="141" y="2266.1800000000003" width="260" height="244.82" as="geometry" />
        </mxCell>
        <mxCell id="XL3TBwz9Qjr_CS2KYYFU-27" value="us-east-1c" style="text;html=1;strokeColor=none;fillColor=none;align=center;verticalAlign=middle;whiteSpace=wrap;rounded=0;fontStyle=1;fontColor=#FF8000;" vertex="1" parent="1">
          <mxGeometry x="126" y="2211" width="270" height="20" as="geometry" />
        </mxCell>
        <mxCell id="XL3TBwz9Qjr_CS2KYYFU-28" value="&lt;span&gt;igw_vpc10&lt;/span&gt;" style="outlineConnect=0;dashed=0;verticalLabelPosition=middle;verticalAlign=middle;align=right;html=1;shape=mxgraph.aws3.internet_gateway;fillColor=#F58534;gradientColor=none;fontColor=#000000;fontSize=12;labelBackgroundColor=#ffffff;whiteSpace=wrap;labelBorderColor=#FFFFFF;shadow=1;labelPosition=left;" vertex="1" parent="1">
          <mxGeometry x="-95.00000000000007" y="2080.18" width="38.33" height="40" as="geometry" />
        </mxCell>
        <mxCell id="XL3TBwz9Qjr_CS2KYYFU-29" value="Internet" style="aspect=fixed;perimeter=ellipsePerimeter;html=1;align=center;shadow=0;dashed=0;spacingTop=3;image;image=img/lib/active_directory/internet_cloud.svg;fontSize=12;fontColor=#000000;" vertex="1" parent="1">
          <mxGeometry x="-39.99999999999998" y="1781.5" width="50" height="31.5" as="geometry" />
        </mxCell>
        <mxCell id="XL3TBwz9Qjr_CS2KYYFU-30" value="ws_1" style="outlineConnect=0;dashed=0;verticalLabelPosition=middle;verticalAlign=middle;align=right;html=1;shape=mxgraph.aws3.instance;fillColor=#F58534;shadow=1;sketch=0;labelPosition=left;" vertex="1" parent="1">
          <mxGeometry x="-297.93" y="2396.02" width="38.1" height="40" as="geometry" />
        </mxCell>
        <mxCell id="XL3TBwz9Qjr_CS2KYYFU-31" value="&amp;nbsp;ws_3" style="outlineConnect=0;dashed=0;verticalLabelPosition=middle;verticalAlign=middle;align=left;html=1;shape=mxgraph.aws3.instance;fillColor=#F58534;shadow=1;sketch=0;labelPosition=right;" vertex="1" parent="1">
          <mxGeometry x="181" y="2399.27" width="38.1" height="40" as="geometry" />
        </mxCell>
        <mxCell id="XL3TBwz9Qjr_CS2KYYFU-32" value="ws_2" style="outlineConnect=0;dashed=0;verticalLabelPosition=middle;verticalAlign=middle;align=right;html=1;shape=mxgraph.aws3.instance;fillColor=#F58534;shadow=1;sketch=0;labelPosition=left;" vertex="1" parent="1">
          <mxGeometry x="-217.92999999999998" y="2396.02" width="38.1" height="40" as="geometry" />
        </mxCell>
        <mxCell id="XL3TBwz9Qjr_CS2KYYFU-33" value="&amp;nbsp;ws_4" style="outlineConnect=0;dashed=0;verticalLabelPosition=middle;verticalAlign=middle;align=left;html=1;shape=mxgraph.aws3.instance;fillColor=#F58534;shadow=1;sketch=0;labelPosition=right;" vertex="1" parent="1">
          <mxGeometry x="260.41999999999996" y="2398.12" width="38.1" height="40" as="geometry" />
        </mxCell>
        <mxCell id="XL3TBwz9Qjr_CS2KYYFU-34" value="&lt;span style=&quot;text-align: left&quot;&gt;sn_vpc10_pub_2&lt;br&gt;10.0.2.0/24&lt;/span&gt;" style="dashed=0;html=1;shape=mxgraph.aws3.permissions;fillColor=#D9A741;gradientColor=none;dashed=0;shadow=1;align=left;labelBackgroundColor=#ffffff;labelBorderColor=#FFFFFF;labelPosition=right;verticalLabelPosition=middle;verticalAlign=middle;" vertex="1" parent="1">
          <mxGeometry x="150.99999999999991" y="2256.1800000000003" width="17.14" height="20" as="geometry" />
        </mxCell>
        <mxCell id="XL3TBwz9Qjr_CS2KYYFU-35" style="edgeStyle=orthogonalEdgeStyle;rounded=0;orthogonalLoop=1;jettySize=auto;html=1;entryX=0.5;entryY=0;entryDx=0;entryDy=0;entryPerimeter=0;fillColor=#0050ef;startArrow=none;startFill=0;endArrow=classic;endFill=1;elbow=vertical;curved=1;strokeColor=#99CCFF;exitX=0.25;exitY=1;exitDx=0;exitDy=0;" edge="1" parent="1" source="XL3TBwz9Qjr_CS2KYYFU-29" target="XL3TBwz9Qjr_CS2KYYFU-28">
          <mxGeometry relative="1" as="geometry">
            <mxPoint x="-90" y="1913" as="sourcePoint" />
            <mxPoint x="-627.75" y="2453.13" as="targetPoint" />
          </mxGeometry>
        </mxCell>
        <mxCell id="XL3TBwz9Qjr_CS2KYYFU-36" value="ngw_pub_1" style="outlineConnect=0;dashed=0;verticalLabelPosition=bottom;verticalAlign=top;align=center;html=1;shape=mxgraph.aws3.vpc_nat_gateway;fillColor=#F58534;gradientColor=none;strokeColor=#CCCCCC;labelBackgroundColor=#ffffff;labelBorderColor=#FFFFFF;shadow=1;" vertex="1" parent="1">
          <mxGeometry x="-415.09999999999997" y="2398.12" width="40.02" height="41.76" as="geometry" />
        </mxCell>
        <mxCell id="XL3TBwz9Qjr_CS2KYYFU-37" value="us-east-1a" style="text;html=1;strokeColor=none;fillColor=none;align=center;verticalAlign=middle;whiteSpace=wrap;rounded=0;fontStyle=1;fontColor=#FF8000;" vertex="1" parent="1">
          <mxGeometry x="-408.99999999999994" y="2211" width="270" height="20" as="geometry" />
        </mxCell>
        <mxCell id="XL3TBwz9Qjr_CS2KYYFU-38" value="ngw_pub_2" style="outlineConnect=0;dashed=0;verticalLabelPosition=bottom;verticalAlign=top;align=center;html=1;shape=mxgraph.aws3.vpc_nat_gateway;fillColor=#F58534;gradientColor=none;strokeColor=#CCCCCC;labelBackgroundColor=#ffffff;labelBorderColor=#FFFFFF;shadow=1;" vertex="1" parent="1">
          <mxGeometry x="380.9800000000001" y="2391" width="40.02" height="41.76" as="geometry" />
        </mxCell>
        <mxCell id="XL3TBwz9Qjr_CS2KYYFU-39" value="&lt;span style=&quot;text-align: left&quot;&gt;sn_vpc10_priv_1&lt;br&gt;10.0.3.0/24&lt;/span&gt;" style="dashed=0;html=1;shape=mxgraph.aws3.permissions;fillColor=#D9A741;gradientColor=none;dashed=0;shadow=1;labelPosition=right;verticalLabelPosition=middle;align=left;verticalAlign=middle;labelBackgroundColor=#ffffff;labelBorderColor=#FFFFFF;" vertex="1" parent="1">
          <mxGeometry x="-392.22000000000014" y="2609.25" width="17.14" height="20" as="geometry" />
        </mxCell>
        <mxCell id="XL3TBwz9Qjr_CS2KYYFU-40" value="" style="rounded=1;arcSize=10;dashed=0;fillColor=none;gradientColor=none;strokeWidth=2;" vertex="1" parent="1">
          <mxGeometry x="141" y="2619.87" width="260" height="142" as="geometry" />
        </mxCell>
        <mxCell id="XL3TBwz9Qjr_CS2KYYFU-41" value="&lt;span style=&quot;text-align: left&quot;&gt;sn_vpc10_priv_2&lt;br&gt;10.0.4.0/24&lt;/span&gt;" style="dashed=0;html=1;shape=mxgraph.aws3.permissions;fillColor=#D9A741;gradientColor=none;dashed=0;shadow=1;labelPosition=right;verticalLabelPosition=middle;align=left;verticalAlign=middle;labelBackgroundColor=#ffffff;labelBorderColor=#FFFFFF;" vertex="1" parent="1">
          <mxGeometry x="150.26999999999987" y="2609.25" width="17.14" height="20" as="geometry" />
        </mxCell>
        <mxCell id="XL3TBwz9Qjr_CS2KYYFU-42" value="sync" style="edgeStyle=orthogonalEdgeStyle;rounded=0;orthogonalLoop=1;jettySize=auto;html=1;exitX=1;exitY=0.5;exitDx=0;exitDy=0;exitPerimeter=0;entryX=0;entryY=0.5;entryDx=0;entryDy=0;entryPerimeter=0;fontColor=#999999;startArrow=none;startFill=0;endArrow=none;endFill=0;strokeColor=#999999;dashed=1;" edge="1" parent="1" source="XL3TBwz9Qjr_CS2KYYFU-43" target="XL3TBwz9Qjr_CS2KYYFU-44">
          <mxGeometry relative="1" as="geometry" />
        </mxCell>
        <mxCell id="XL3TBwz9Qjr_CS2KYYFU-43" value="rds_master" style="outlineConnect=0;dashed=0;verticalLabelPosition=bottom;verticalAlign=top;align=center;html=1;shape=mxgraph.aws3.rds_db_instance;fillColor=#2E73B8;gradientColor=none;" vertex="1" parent="1">
          <mxGeometry x="-303.5" y="2657.87" width="49.5" height="66" as="geometry" />
        </mxCell>
        <mxCell id="XL3TBwz9Qjr_CS2KYYFU-44" value="rds_slave" style="outlineConnect=0;dashed=0;verticalLabelPosition=bottom;verticalAlign=top;align=center;html=1;shape=mxgraph.aws3.rds_db_instance_standby_multi_az;fillColor=#2E73B8;gradientColor=none;" vertex="1" parent="1">
          <mxGeometry x="246.24999999999997" y="2657.87" width="49.5" height="66" as="geometry" />
        </mxCell>
        <mxCell id="XL3TBwz9Qjr_CS2KYYFU-45" value="elb_ws" style="outlineConnect=0;dashed=0;verticalLabelPosition=middle;verticalAlign=middle;align=right;html=1;shape=mxgraph.aws3.classic_load_balancer;fillColor=#F58534;gradientColor=none;labelPosition=left;labelBackgroundColor=default;labelBorderColor=#FFFFFF;whiteSpace=wrap;" vertex="1" parent="1">
          <mxGeometry x="-15.250000000000021" y="2287" width="40.25" height="42" as="geometry" />
        </mxCell>
        <mxCell id="XL3TBwz9Qjr_CS2KYYFU-46" value="&amp;nbsp;sns_topic_app" style="sketch=0;points=[[0,0,0],[0.25,0,0],[0.5,0,0],[0.75,0,0],[1,0,0],[0,1,0],[0.25,1,0],[0.5,1,0],[0.75,1,0],[1,1,0],[0,0.25,0],[0,0.5,0],[0,0.75,0],[1,0.25,0],[1,0.5,0],[1,0.75,0]];outlineConnect=0;fontColor=#232F3E;gradientColor=#FF4F8B;gradientDirection=north;fillColor=#BC1356;strokeColor=#ffffff;dashed=0;verticalLabelPosition=middle;verticalAlign=middle;align=left;html=1;fontSize=12;fontStyle=0;aspect=fixed;shape=mxgraph.aws4.resourceIcon;resIcon=mxgraph.aws4.sns;labelPosition=right;" vertex="1" parent="1">
          <mxGeometry x="23.71000000000003" y="1973" width="44" height="44" as="geometry" />
        </mxCell>
        <mxCell id="XL3TBwz9Qjr_CS2KYYFU-47" value="User" style="shape=umlActor;verticalLabelPosition=bottom;verticalAlign=top;html=1;outlineConnect=0;fontColor=#000000;strokeColor=#000000;" vertex="1" parent="1">
          <mxGeometry x="-135" y="1663" width="30" height="60" as="geometry" />
        </mxCell>
        <mxCell id="XL3TBwz9Qjr_CS2KYYFU-48" style="edgeStyle=orthogonalEdgeStyle;rounded=0;orthogonalLoop=1;jettySize=auto;html=1;fillColor=#0050ef;startArrow=none;startFill=0;endArrow=classic;endFill=1;elbow=vertical;curved=1;strokeColor=#99CCFF;entryX=0;entryY=0;entryDx=0;entryDy=0;" edge="1" parent="1" source="XL3TBwz9Qjr_CS2KYYFU-47" target="XL3TBwz9Qjr_CS2KYYFU-29">
          <mxGeometry relative="1" as="geometry">
            <mxPoint x="-55.00000000001023" y="1988.75" as="sourcePoint" />
            <mxPoint x="-22" y="1685" as="targetPoint" />
          </mxGeometry>
        </mxCell>
        <mxCell id="XL3TBwz9Qjr_CS2KYYFU-49" style="edgeStyle=orthogonalEdgeStyle;rounded=0;orthogonalLoop=1;jettySize=auto;html=1;entryX=0.5;entryY=0;entryDx=0;entryDy=0;entryPerimeter=0;fillColor=#0050ef;startArrow=none;startFill=0;endArrow=classic;endFill=1;elbow=vertical;curved=1;strokeColor=#99CCFF;exitX=0.5;exitY=1;exitDx=0;exitDy=0;exitPerimeter=0;" edge="1" parent="1" source="XL3TBwz9Qjr_CS2KYYFU-28" target="XL3TBwz9Qjr_CS2KYYFU-45">
          <mxGeometry relative="1" as="geometry">
            <mxPoint x="-15" y="2183" as="sourcePoint" />
            <mxPoint x="-6.375" y="2133" as="targetPoint" />
          </mxGeometry>
        </mxCell>
        <mxCell id="XL3TBwz9Qjr_CS2KYYFU-50" style="edgeStyle=orthogonalEdgeStyle;rounded=0;orthogonalLoop=1;jettySize=auto;html=1;fillColor=#0050ef;startArrow=none;startFill=0;endArrow=classic;endFill=1;elbow=vertical;curved=1;strokeColor=#99CCFF;entryX=0.5;entryY=0.02;entryDx=0;entryDy=0;entryPerimeter=0;exitX=0.5;exitY=1;exitDx=0;exitDy=0;exitPerimeter=0;" edge="1" parent="1" source="XL3TBwz9Qjr_CS2KYYFU-30" target="XL3TBwz9Qjr_CS2KYYFU-43">
          <mxGeometry relative="1" as="geometry">
            <mxPoint x="-279" y="2459" as="sourcePoint" />
            <mxPoint x="-268.8571428571429" y="2406.02" as="targetPoint" />
          </mxGeometry>
        </mxCell>
        <mxCell id="XL3TBwz9Qjr_CS2KYYFU-51" style="edgeStyle=orthogonalEdgeStyle;rounded=0;orthogonalLoop=1;jettySize=auto;html=1;fillColor=#0050ef;startArrow=none;startFill=0;endArrow=classic;endFill=1;elbow=vertical;curved=1;strokeColor=#99CCFF;entryX=0.5;entryY=0.02;entryDx=0;entryDy=0;entryPerimeter=0;exitX=0.5;exitY=1;exitDx=0;exitDy=0;exitPerimeter=0;" edge="1" parent="1" source="XL3TBwz9Qjr_CS2KYYFU-32" target="XL3TBwz9Qjr_CS2KYYFU-43">
          <mxGeometry relative="1" as="geometry">
            <mxPoint x="-269.0000000000002" y="2469" as="sourcePoint" />
            <mxPoint x="-259.40999999999985" y="2675.42" as="targetPoint" />
          </mxGeometry>
        </mxCell>
        <mxCell id="XL3TBwz9Qjr_CS2KYYFU-52" style="edgeStyle=orthogonalEdgeStyle;rounded=0;orthogonalLoop=1;jettySize=auto;html=1;fillColor=#0050ef;startArrow=none;startFill=0;endArrow=classic;endFill=1;elbow=vertical;curved=1;strokeColor=#99CCFF;entryX=0.5;entryY=0.02;entryDx=0;entryDy=0;entryPerimeter=0;exitX=0.5;exitY=1;exitDx=0;exitDy=0;exitPerimeter=0;" edge="1" parent="1" source="XL3TBwz9Qjr_CS2KYYFU-31" target="XL3TBwz9Qjr_CS2KYYFU-43">
          <mxGeometry relative="1" as="geometry">
            <mxPoint x="-207.93000000000006" y="2426" as="sourcePoint" />
            <mxPoint x="-259.40999999999985" y="2675.42" as="targetPoint" />
          </mxGeometry>
        </mxCell>
        <mxCell id="XL3TBwz9Qjr_CS2KYYFU-53" style="edgeStyle=orthogonalEdgeStyle;rounded=0;orthogonalLoop=1;jettySize=auto;html=1;fillColor=#0050ef;startArrow=none;startFill=0;endArrow=classic;endFill=1;elbow=vertical;curved=1;strokeColor=#99CCFF;exitX=0.5;exitY=1;exitDx=0;exitDy=0;exitPerimeter=0;" edge="1" parent="1" source="XL3TBwz9Qjr_CS2KYYFU-33" target="XL3TBwz9Qjr_CS2KYYFU-43">
          <mxGeometry relative="1" as="geometry">
            <mxPoint x="191" y="2429.285714285714" as="sourcePoint" />
            <mxPoint x="-259.40999999999985" y="2675.42" as="targetPoint" />
          </mxGeometry>
        </mxCell>
        <mxCell id="XL3TBwz9Qjr_CS2KYYFU-54" style="edgeStyle=orthogonalEdgeStyle;rounded=0;orthogonalLoop=1;jettySize=auto;html=1;fillColor=#0050ef;startArrow=classic;startFill=1;endArrow=none;endFill=0;elbow=vertical;curved=1;strokeColor=#0000FF;exitX=0.5;exitY=1;exitDx=0;exitDy=0;exitPerimeter=0;" edge="1" parent="1" source="XL3TBwz9Qjr_CS2KYYFU-46" target="XL3TBwz9Qjr_CS2KYYFU-62">
          <mxGeometry relative="1" as="geometry">
            <mxPoint x="-44.700000000000045" y="1904.5000000000005" as="sourcePoint" />
            <mxPoint x="-44.705000000000155" y="2131.59" as="targetPoint" />
          </mxGeometry>
        </mxCell>
        <mxCell id="XL3TBwz9Qjr_CS2KYYFU-55" style="edgeStyle=orthogonalEdgeStyle;rounded=0;orthogonalLoop=1;jettySize=auto;html=1;fillColor=#0050ef;startArrow=classic;startFill=1;endArrow=none;endFill=0;elbow=vertical;curved=1;strokeColor=#0000FF;exitX=0.75;exitY=1;exitDx=0;exitDy=0;entryX=0.5;entryY=0;entryDx=0;entryDy=0;entryPerimeter=0;" edge="1" parent="1" source="XL3TBwz9Qjr_CS2KYYFU-29" target="XL3TBwz9Qjr_CS2KYYFU-46">
          <mxGeometry relative="1" as="geometry">
            <mxPoint x="37" y="2071" as="sourcePoint" />
            <mxPoint x="35.71428571428578" y="2130.88" as="targetPoint" />
          </mxGeometry>
        </mxCell>
        <mxCell id="XL3TBwz9Qjr_CS2KYYFU-56" style="edgeStyle=orthogonalEdgeStyle;rounded=0;orthogonalLoop=1;jettySize=auto;html=1;entryX=0.5;entryY=0;entryDx=0;entryDy=0;entryPerimeter=0;fillColor=#0050ef;startArrow=none;startFill=0;endArrow=classic;endFill=1;elbow=vertical;curved=1;strokeColor=#99CCFF;exitX=0.5;exitY=1;exitDx=0;exitDy=0;exitPerimeter=0;" edge="1" parent="1" source="XL3TBwz9Qjr_CS2KYYFU-45" target="XL3TBwz9Qjr_CS2KYYFU-30">
          <mxGeometry relative="1" as="geometry">
            <mxPoint x="-65.83499999999981" y="2130.18" as="sourcePoint" />
            <mxPoint x="14.875000000000227" y="2297" as="targetPoint" />
          </mxGeometry>
        </mxCell>
        <mxCell id="XL3TBwz9Qjr_CS2KYYFU-57" style="edgeStyle=orthogonalEdgeStyle;rounded=0;orthogonalLoop=1;jettySize=auto;html=1;entryX=0.5;entryY=0;entryDx=0;entryDy=0;entryPerimeter=0;fillColor=#0050ef;startArrow=none;startFill=0;endArrow=classic;endFill=1;elbow=vertical;curved=1;strokeColor=#99CCFF;exitX=0.5;exitY=1;exitDx=0;exitDy=0;exitPerimeter=0;" edge="1" parent="1" source="XL3TBwz9Qjr_CS2KYYFU-45" target="XL3TBwz9Qjr_CS2KYYFU-32">
          <mxGeometry relative="1" as="geometry">
            <mxPoint x="14.875" y="2339" as="sourcePoint" />
            <mxPoint x="-268.8799999999999" y="2406.02" as="targetPoint" />
          </mxGeometry>
        </mxCell>
        <mxCell id="XL3TBwz9Qjr_CS2KYYFU-58" style="edgeStyle=orthogonalEdgeStyle;rounded=0;orthogonalLoop=1;jettySize=auto;html=1;entryX=0.5;entryY=0;entryDx=0;entryDy=0;entryPerimeter=0;fillColor=#0050ef;startArrow=none;startFill=0;endArrow=classic;endFill=1;elbow=vertical;curved=1;strokeColor=#99CCFF;exitX=0.5;exitY=1;exitDx=0;exitDy=0;exitPerimeter=0;" edge="1" parent="1" source="XL3TBwz9Qjr_CS2KYYFU-45" target="XL3TBwz9Qjr_CS2KYYFU-31">
          <mxGeometry relative="1" as="geometry">
            <mxPoint x="14.875" y="2339" as="sourcePoint" />
            <mxPoint x="-188.87999999999988" y="2406.02" as="targetPoint" />
          </mxGeometry>
        </mxCell>
        <mxCell id="XL3TBwz9Qjr_CS2KYYFU-59" style="edgeStyle=orthogonalEdgeStyle;rounded=0;orthogonalLoop=1;jettySize=auto;html=1;fillColor=#0050ef;startArrow=none;startFill=0;endArrow=classic;endFill=1;elbow=vertical;curved=1;strokeColor=#99CCFF;exitX=0.5;exitY=1;exitDx=0;exitDy=0;exitPerimeter=0;entryX=0.5;entryY=0;entryDx=0;entryDy=0;entryPerimeter=0;" edge="1" parent="1" source="XL3TBwz9Qjr_CS2KYYFU-45" target="XL3TBwz9Qjr_CS2KYYFU-33">
          <mxGeometry relative="1" as="geometry">
            <mxPoint x="14.875" y="2339" as="sourcePoint" />
            <mxPoint x="280" y="2363" as="targetPoint" />
          </mxGeometry>
        </mxCell>
        <mxCell id="XL3TBwz9Qjr_CS2KYYFU-60" style="edgeStyle=orthogonalEdgeStyle;rounded=0;orthogonalLoop=1;jettySize=auto;html=1;fillColor=#0050ef;startArrow=classic;startFill=1;endArrow=none;endFill=0;elbow=vertical;curved=1;strokeColor=#0000FF;entryX=0.75;entryY=0;entryDx=0;entryDy=0;" edge="1" parent="1" target="XL3TBwz9Qjr_CS2KYYFU-29">
          <mxGeometry relative="1" as="geometry">
            <mxPoint x="99" y="1700" as="sourcePoint" />
            <mxPoint x="55.710000000000036" y="1983" as="targetPoint" />
          </mxGeometry>
        </mxCell>
        <mxCell id="XL3TBwz9Qjr_CS2KYYFU-61" style="edgeStyle=orthogonalEdgeStyle;rounded=0;orthogonalLoop=1;jettySize=auto;html=1;fillColor=#0050ef;startArrow=classic;startFill=1;endArrow=none;endFill=0;elbow=vertical;curved=1;strokeColor=#0000FF;entryX=0;entryY=0.5;entryDx=0;entryDy=0;entryPerimeter=0;" edge="1" parent="1" source="XL3TBwz9Qjr_CS2KYYFU-62" target="XL3TBwz9Qjr_CS2KYYFU-31">
          <mxGeometry relative="1" as="geometry">
            <mxPoint x="49" y="2148" as="sourcePoint" />
            <mxPoint x="74.71000000000004" y="2323.75" as="targetPoint" />
          </mxGeometry>
        </mxCell>
        <mxCell id="XL3TBwz9Qjr_CS2KYYFU-62" value="vpc_ep_vpc10" style="sketch=0;outlineConnect=0;fillColor=#f0a30a;strokeColor=#BD7000;dashed=0;verticalLabelPosition=bottom;verticalAlign=top;align=center;html=1;fontSize=12;fontStyle=0;aspect=fixed;pointerEvents=1;shape=mxgraph.aws4.endpoints;labelPosition=center;labelBackgroundColor=default;labelBorderColor=#FFFFFF;whiteSpace=wrap;fontColor=#000000;" vertex="1" parent="1">
          <mxGeometry x="24.99999999999997" y="2138" width="41.41" height="41.41" as="geometry" />
        </mxCell>
        <mxCell id="XL3TBwz9Qjr_CS2KYYFU-63" style="edgeStyle=orthogonalEdgeStyle;rounded=0;orthogonalLoop=1;jettySize=auto;html=1;fillColor=#0050ef;startArrow=classic;startFill=1;endArrow=none;endFill=0;elbow=vertical;curved=1;strokeColor=#0000FF;entryX=0;entryY=0.5;entryDx=0;entryDy=0;entryPerimeter=0;" edge="1" parent="1" source="XL3TBwz9Qjr_CS2KYYFU-62" target="XL3TBwz9Qjr_CS2KYYFU-33">
          <mxGeometry relative="1" as="geometry">
            <mxPoint x="76.40999999999985" y="2168.6666666666665" as="sourcePoint" />
            <mxPoint x="191" y="2429.27" as="targetPoint" />
            <Array as="points">
              <mxPoint x="163" y="2159" />
              <mxPoint x="163" y="2360" />
              <mxPoint x="231" y="2360" />
              <mxPoint x="231" y="2418" />
            </Array>
          </mxGeometry>
        </mxCell>
        <mxCell id="XL3TBwz9Qjr_CS2KYYFU-64" style="edgeStyle=orthogonalEdgeStyle;rounded=0;orthogonalLoop=1;jettySize=auto;html=1;fillColor=#0050ef;startArrow=classic;startFill=1;endArrow=none;endFill=0;elbow=vertical;curved=1;strokeColor=#0000FF;" edge="1" parent="1" source="XL3TBwz9Qjr_CS2KYYFU-62">
          <mxGeometry relative="1" as="geometry">
            <mxPoint x="76.40999999999985" y="2168.6666666666665" as="sourcePoint" />
            <mxPoint x="-260" y="2416" as="targetPoint" />
            <Array as="points">
              <mxPoint x="-117" y="2159" />
              <mxPoint x="-117" y="2351" />
              <mxPoint x="-241" y="2351" />
              <mxPoint x="-241" y="2416" />
            </Array>
          </mxGeometry>
        </mxCell>
        <mxCell id="XL3TBwz9Qjr_CS2KYYFU-65" style="edgeStyle=orthogonalEdgeStyle;rounded=0;orthogonalLoop=1;jettySize=auto;html=1;fillColor=#0050ef;startArrow=classic;startFill=1;endArrow=none;endFill=0;elbow=vertical;curved=1;strokeColor=#0000FF;entryX=1;entryY=0.5;entryDx=0;entryDy=0;entryPerimeter=0;" edge="1" parent="1" source="XL3TBwz9Qjr_CS2KYYFU-62" target="XL3TBwz9Qjr_CS2KYYFU-32">
          <mxGeometry relative="1" as="geometry">
            <mxPoint x="35" y="2168.6666666666665" as="sourcePoint" />
            <mxPoint x="-268.8333333333335" y="2406.02" as="targetPoint" />
          </mxGeometry>
        </mxCell>
      </root>
    </mxGraphModel>
  </diagram>
</mxfile>
